<mxfile host="app.diagrams.net" modified="2023-09-20T08:59:12.647Z" agent="Mozilla/5.0 (X11; Linux x86_64) AppleWebKit/537.36 (KHTML, like Gecko) Chrome/92.0.4515.159 Safari/537.36" version="21.6.8" etag="RobITV_1O7E4Dz6E_Dff" type="github">
  <diagram name="第 1 页" id="QrcbxmmJk1VV-Z9yw0f1">
    <mxGraphModel>
      <root>
        <mxCell id="0" />
        <mxCell id="1" parent="0" />
      </root>
    </mxGraphModel>
  </diagram>
</mxfile>
